<svg width="84" height="57" viewBox="0 0 84 57" fill="none" xmlns="http://www.w3.org/2000/svg">
<path fill-rule="evenodd" clip-rule="evenodd" d="M33.4851 16.4279L33.4851 5.80221L40.5457 0L49.4237 6.43136V29.5703H50.3325V14.89L55.0162 19.9931V30.3581C64.5865 31.9496 71.9357 35.1909 76.058 37.959C48.487 29.9058 18.5252 34.6035 6.99072 37.959C13.3142 34.8964 19.4522 32.789 25.3061 31.4289V28.2421L27.4033 26.0051V30.6888H28.382L28.1723 18.5251L33.4851 16.4279ZM35.093 17.943L37.1203 19.8533V29.6018C38.2786 29.5123 39.4207 29.4505 40.5457 29.4141V1.95737L35.093 6.15174V17.943ZM36.4911 29.653C35.6361 29.7262 34.7724 29.8144 33.9004 29.9185L33.8347 17.6862L36.4911 20.1329V29.653Z" fill="url(#paint0_linear)"/>
<path d="M3.97626 56.6463C4.88224 56.6463 5.82178 56.5624 6.59354 56.0591C7.4492 55.5222 7.83508 54.5995 7.85185 53.3412V47.7543C7.85185 46.5463 7.6673 45.3215 6.52644 44.6504C5.57012 44.0968 4.27825 44.0632 3.2045 44.0632H0V56.6463H3.97626ZM2.95283 46.3282C4.3957 46.3617 4.88224 46.4456 4.89902 47.922V52.0325C4.94935 53.7103 4.93258 54.5156 2.95283 54.3814V46.3282Z" fill="#74AE5A"/>
<path d="M13.7854 56.6463V44.0632H10.8326V56.6463H13.7854Z" fill="#74AE5A"/>
<path d="M22.4648 56.6463L25.2163 44.0632H22.2634L20.7535 52.8882H20.7199L19.2099 44.0632H16.2571L18.9918 56.6463H22.4648Z" fill="#74AE5A"/>
<path d="M34.5557 56.6463V54.1297H30.5459V51.4118H34.2369V48.8951H30.5459V46.5798H34.3544V44.0632H27.593V56.6463H34.5557Z" fill="#74AE5A"/>
<path d="M40.2936 46.3282C41.7364 46.2946 42.3572 46.3617 42.3572 47.8549C42.3572 48.6267 42.1559 49.4152 41.3002 49.4152H40.2936V46.3282ZM40.2936 51.6802H41.2667C41.9545 51.7305 42.1894 52.2339 42.2733 53.0056C42.3572 53.7774 42.2901 54.8176 42.3404 55.9249C42.3572 56.1766 42.4243 56.4114 42.5082 56.6463H45.7295V56.4786C45.5953 56.3611 45.5114 56.2101 45.4443 56.0423C45.2765 55.237 45.2597 53.0727 45.1758 52.0661C45.1255 51.1936 44.5383 50.6232 43.7162 50.4387V50.4051C44.9577 49.8347 45.2765 48.8784 45.2765 47.5362C45.2765 45.0363 44.0685 44.0632 41.6526 44.0632H37.3407V56.6463H40.2936V51.6802Z" fill="#74AE5A"/>
<path d="M56.0252 48.4589V47.4019C56.0252 44.835 54.5152 43.7612 51.9986 43.7612C49.2974 43.7612 48.0391 45.0363 48.0391 47.771V52.9385C48.0391 55.5055 49.0961 56.9483 51.8141 56.9483C54.834 56.9483 56.0755 55.4383 56.0755 53.2741V51.7305H53.1227V52.8714C53.1227 53.6432 53.0388 54.6834 52.0322 54.6834C51.2604 54.6834 50.9752 54.2639 50.9752 53.5593L50.992 47.3348C50.992 46.5127 51.2101 46.0094 52.1328 46.0262C52.6865 46.0262 53.0724 46.5798 53.0724 47.6536V48.4589H56.0252Z" fill="#74AE5A"/>
<path d="M61.942 56.6463V44.0632H58.9892V56.6463H61.942Z" fill="#74AE5A"/>
<path d="M64.5982 46.5798H66.9135V56.6463H69.8664V46.5798H72.2488V44.0632H64.5982V46.5798Z" fill="#74AE5A"/>
<path d="M77.2149 44.0632H74.2285L77.1981 51.3614V56.6463H80.1509V51.3614L83.1877 44.0632H80.2348L78.7249 48.1737H78.6913L77.2149 44.0632Z" fill="#74AE5A"/>
<defs>
<linearGradient id="paint0_linear" x1="41.5243" y1="0" x2="41.5243" y2="37.959" gradientUnits="userSpaceOnUse">
<stop stop-color="#B0C95A"/>
<stop offset="1" stop-color="#68A95A"/>
</linearGradient>
</defs>
</svg>
