<svg width="15" height="15" viewBox="0 0 15 15" fill="none" xmlns="http://www.w3.org/2000/svg">
<g clip-path="url(#clip0)">
<path d="M14.8698 14.235L11.2245 10.5898C12.2024 9.46563 12.7944 7.99889 12.7944 6.39579C12.7944 2.86696 9.92409 0 6.39859 0C2.86977 0 0.00280762 2.87029 0.00280762 6.39579C0.00280762 9.92129 2.8731 12.7916 6.39859 12.7916C8.0017 12.7916 9.46844 12.1996 10.5926 11.2217L14.2378 14.867C14.3243 14.9534 14.4407 15 14.5538 15C14.6669 15 14.7833 14.9568 14.8698 14.867C15.0427 14.694 15.0427 14.408 14.8698 14.235ZM0.897486 6.39579C0.897486 3.36253 3.36533 0.898004 6.39527 0.898004C9.42853 0.898004 11.893 3.36585 11.893 6.39579C11.893 9.42572 9.42853 11.8969 6.39527 11.8969C3.36533 11.8969 0.897486 9.42905 0.897486 6.39579Z" fill="#74AE5A"/>
</g>
<defs>
<clipPath id="clip0">
<rect width="15" height="15" fill="white"/>
</clipPath>
</defs>
</svg>
